<svg viewBox="0 0 1200 630" xmlns="http://www.w3.org/2000/svg" font-family="'Hiragino Maru Gothic ProN','Hiragino Sans',sans-serif">
  <defs>
    <filter id="s" x="-20%" y="-20%" width="140%" height="140%">
      <feDropShadow dx="0" dy="8" stdDeviation="0" flood-color="#00000010"/>
    </filter>
  </defs>

  <!-- background -->
  <rect width="1200" height="630" fill="#fff3e6"/>
  <rect width="1200" height="630" fill="none"/>

  <!-- sparkles -->
  <path d="M120 120 l7 22 22 7 -22 7 -7 22 -7-22 -22-7 22-7z" fill="#ffc94d"/>
  <path d="M1080 470 l6 18 18 6 -18 6 -6 18 -6-18 -18-6 18-6z" fill="#ff6f7e"/>
  <circle cx="150" cy="470" r="12" fill="#3fca9f"/>
  <path d="M1060 130 l5 16 16 5 -16 5 -5 16 -5-16 -16-5 16-5z" fill="#8b7cf0"/>

  <!-- brand -->
  <g transform="translate(90 96)">
    <rect x="0" y="0" width="64" height="64" rx="18" fill="#ff6f7e"/>
    <path d="M24 18v28l22-14-22-14z" fill="#fff"/>
    <text x="82" y="46" font-size="42" font-weight="700" fill="#3b4a5a">SUB<tspan fill="#ff6f7e">GRADE</tspan></text>
  </g>

  <!-- headline -->
  <text x="90" y="300" font-size="62" font-weight="700" fill="#3b4a5a">英語では詳しいのに、</text>
  <text x="90" y="386" font-size="62" font-weight="700" fill="#3b4a5a">日本語に<tspan fill="#8b7cf0">ない</tspan>解説を。</text>
  <text x="94" y="452" font-size="28" fill="#64717f">中級者のための Premiere Pro / Adobe 学習メディア</text>

  <!-- editing illustration -->
  <g transform="translate(860 250) scale(1.05)" filter="url(#s)">
    <rect x="-160" y="-120" width="320" height="150" rx="20" fill="#ffffff" stroke="#ffe0c2" stroke-width="4"/>
    <rect x="-160" y="-120" width="320" height="34" rx="17" fill="#fff3e6"/>
    <circle cx="-140" cy="-103" r="5" fill="#ff6f7e"/><circle cx="-124" cy="-103" r="5" fill="#ffc94d"/><circle cx="-108" cy="-103" r="5" fill="#3fca9f"/>
    <rect x="-140" y="-70" width="280" height="86" rx="12" fill="#f2effc"/>
    <circle cx="0" cy="-27" r="30" fill="#8b7cf0"/>
    <path d="M-8 -41v28l22-14-22-14z" fill="#fff"/>

    <rect x="-160" y="46" width="320" height="60" rx="16" fill="#ffffff" stroke="#ffe0c2" stroke-width="4"/>
    <rect x="-146" y="62" width="74" height="16" rx="6" fill="#ff6f7e"/>
    <rect x="-66" y="62" width="56" height="16" rx="6" fill="#56b4ef"/>
    <rect x="-4" y="62" width="46" height="16" rx="6" fill="#3fca9f"/>
    <rect x="48" y="62" width="70" height="16" rx="6" fill="#ffc94d"/>
  </g>
</svg>
